PathFileType	4	(X/Y/Z)	C:/Users/opensim2020/Desktop/walking_exp_matlab/subject06_walking16_straight_03.trc																																																																																																																																																							
DataRate	CameraRate	NumFrames	NumMarkers	Units	OrigDataRate	OrigDataStartFrame	OrigNumFrames																																																																																																																																																			
100	100	7	51	mm	100	2823	283																																																																																																																																																			
Frame#	Time	LFHD			RFHD			LBHD			RBHD			C7			T10			CLAV			STRN			RBAK			LSHO			LUPA			LELB			LFRM			LWRA			LWRB			LFIN			RSHO			RUPA			RELB			RFRM			RWRA			RWRB			RFIN			LASI			RASI			LPSI			RPSI			LTHI			LKNE			LTIB			LANK			LHEE			LTOE			RTHI			RKNE			RTIB			RANK			RHEE			RTOE			*39			*40			*41			*42			*43			*44			*45			*46			*47			*48			*49			*50		
		X1	Y1	Z1	X2	Y2	Z2	X3	Y3	Z3	X4	Y4	Z4	X5	Y5	Z5	X6	Y6	Z6	X7	Y7	Z7	X8	Y8	Z8	X9	Y9	Z9	X10	Y10	Z10	X11	Y11	Z11	X12	Y12	Z12	X13	Y13	Z13	X14	Y14	Z14	X15	Y15	Z15	X16	Y16	Z16	X17	Y17	Z17	X18	Y18	Z18	X19	Y19	Z19	X20	Y20	Z20	X21	Y21	Z21	X22	Y22	Z22	X23	Y23	Z23	X24	Y24	Z24	X25	Y25	Z25	X26	Y26	Z26	X27	Y27	Z27	X28	Y28	Z28	X29	Y29	Z29	X30	Y30	Z30	X31	Y31	Z31	X32	Y32	Z32	X33	Y33	Z33	X34	Y34	Z34	X35	Y35	Z35	X36	Y36	Z36	X37	Y37	Z37	X38	Y38	Z38	X39	Y39	Z39	X40	Y40	Z40	X41	Y41	Z41	X42	Y42	Z42	X43	Y43	Z43	X44	Y44	Z44	X45	Y45	Z45	X46	Y46	Z46	X47	Y47	Z47	X48	Y48	Z48	X49	Y49	Z49	X50	Y50	Z50	X51	Y51	Z51
																																																																																																																																																										
1	0	-961.85492	1658.27795	-1031.77344	-976.00378	1634.62317	-904.48132	-1094.92078	1602.6897	-1052.04236	-1105.59521	1584.16235	-924.15588	-1101.57922	1444.74219	-1007.03522	-1150.39966	1118.90613	-1013.58948	-995.60852	1361.69104	-1004.69025	-964.35132	1184.75806	-1019.68713	-1183.93713	1275.94324	-938.01648	-1038.92725	1402.66565	-1165.40051	-1011.51801	1204.32751	-1240.21741	-991.35638	1092.9873	-1252.9187	-890.90442	981.3053	-1256.47717	-781.11713	933.90515	-1195.28723	-820.44678	887.3103	-1231.27844	-736.80859	852.97638	-1219.44592	-1043.55188	1389.59399	-844.04388	-1099.28833	1190.90295	-767.83435	-1101.13574	1068.76306	-760.40594	-1103.30249	948.01526	-745.06494	-1063.8949	801.62921	-773.49084	-1120.02808	810.27887	-737.69006	-1094.92432	729.3653	-735.52618	-986.15375	946.17535	-1123.58105	-972.56525	962.95618	-903.97717	-1139.14563	980.61792	-1091.56543	-1124.61365	992.26233	-924.18018	-1079.50598	627.04175	-1163.40967	-1096.64172	463.50601	-1138.84534	-1283.36035	280.13309	-1123.28979	-1393.31506	156.39989	-1086.69397	-1431.79395	170.92863	-1039.04871	-1310.11938	38.86611	-1087.40527	-988.95825	639.02484	-836.66705	-963.82178	517.87952	-864.99146	-963.83643	251.11597	-862.01117	-944.24286	65.33772	-907.36792	-979.81915	39.94023	-953.30029	-789.51569	40.89781	-909.20258	-1070.00415	1689.10486	-980.99792	NaN	NaN	NaN	NaN	NaN	NaN	NaN	NaN	NaN	NaN	NaN	NaN	NaN	NaN	NaN	NaN	NaN	NaN	NaN	NaN	NaN	NaN	NaN	NaN	NaN	NaN	NaN	NaN	NaN	NaN	NaN	NaN	NaN
2	0.01	-955.92444	1659.41602	-1031.76074	-969.68591	1635.55823	-903.79175	-1088.48792	1603.43115	-1051.40161	-1099.16931	1584.93237	-923.56891	-1094.91846	1445.52197	-1006.18884	-1143.5697	1119.58728	-1011.99939	-988.91833	1362.53662	-1003.99304	-957.4021	1185.61365	-1018.7959	-1176.92249	1276.61475	-936.53821	-1032.6615	1403.27478	-1164.59033	-1005.51031	1204.76282	-1239.05188	-985.96234	1093.43872	-1251.74744	-886.58441	980.85126	-1255.82141	-777.01941	932.30835	-1195.02844	-816.77264	886.32892	-1231.44348	-733.41095	851.10059	-1219.56799	-1036.45703	1390.80005	-843.22229	-1091.06458	1191.95935	-766.70929	-1092.26733	1069.75635	-759.22705	-1093.4425	948.99945	-743.94482	-1053.12158	802.7981	-772.84442	-1108.96326	811.13104	-736.6073	-1083.00745	730.36597	-734.54871	-979.65753	947.37219	-1122.51147	-965.1189	963.47333	-903.16626	-1132.5896	981.10986	-1089.94519	-1117.64685	992.93152	-922.49988	-1068.63208	627.12848	-1162.56067	-1082.42773	463.42899	-1138.23413	-1272.16797	284.69165	-1121.87195	-1384.67969	163.31686	-1085.46802	-1421.95337	179.26941	-1037.51221	-1307.02991	41.29053	-1087.11597	-982.13617	639.11884	-836.39929	-958.86389	517.9436	-864.84735	-961.30432	251.16159	-861.90369	-943.69379	65.44169	-907.73883	-979.62823	40.00893	-953.55017	-789.48853	40.73843	-909.69391	-1063.69666	1689.96631	-980.39453	NaN	NaN	NaN	NaN	NaN	NaN	NaN	NaN	NaN	NaN	NaN	NaN	NaN	NaN	NaN	NaN	NaN	NaN	NaN	NaN	NaN	NaN	NaN	NaN	NaN	NaN	NaN	NaN	NaN	NaN	NaN	NaN	NaN
3	0.02	-949.07898	1659.98962	-1030.44373	-963.36487	1636.54785	-903.2171	-1082.04236	1604.14478	-1050.87695	-1092.74585	1585.65955	-923.03229	-1088.36963	1446.23608	-1005.31708	-1136.72217	1120.0437	-1010.42212	-982.26538	1363.31458	-1003.13397	-950.75836	1186.36963	-1017.69507	-1169.95605	1277.15906	-934.96338	-1026.59265	1403.69751	-1163.8584	-999.79749	1204.9364	-1237.98376	-980.58911	1093.52759	-1250.61169	-882.35052	980.15247	-1255.30115	-773.15845	930.26068	-1194.85742	-813.30823	884.92725	-1231.38928	-730.34485	848.83289	-1219.93701	-1029.4425	1391.94189	-842.41077	-1082.85522	1192.87439	-765.5235	-1083.35168	1070.63293	-757.96973	-1083.41077	949.85846	-742.74365	-1041.32971	804.34998	-771.30017	-1097.74512	811.85706	-735.50128	-1071.02905	731.34381	-733.59857	-973.29022	948.45288	-1121.67517	-957.75647	963.94391	-902.30695	-1126.23083	981.43768	-1088.41296	-1110.39026	993.46973	-921.00922	-1057.82458	627.20105	-1161.72009	-1067.99646	463.38358	-1137.55103	-1260.58167	288.95456	-1120.396	-1375.53894	170.71091	-1084.13696	-1411.38281	187.82077	-1036.19104	-1303.57446	44.23293	-1085.80908	-975.70984	640.03625	-836.2196	-953.80939	518.29346	-864.24719	-958.70471	251.32227	-861.3866	-943.20508	65.47233	-907.81036	-979.5282	40.04975	-953.53467	-789.53973	40.62054	-910.00262	-1057.41968	1690.77271	-979.95605	NaN	NaN	NaN	NaN	NaN	NaN	NaN	NaN	NaN	NaN	NaN	NaN	NaN	NaN	NaN	NaN	NaN	NaN	NaN	NaN	NaN	NaN	NaN	NaN	NaN	NaN	NaN	NaN	NaN	NaN	NaN	NaN	NaN
4	0.03	-942.83698	1660.85596	-1030.21082	-957.01294	1637.43689	-902.78986	-1075.61914	1604.7644	-1050.41541	-1086.31409	1586.43054	-922.5813	-1081.92017	1447.05298	-1004.49384	-1129.98364	1120.58264	-1008.85352	-975.80505	1364.06482	-1002.44873	-944.13965	1187.08179	-1016.79938	-1163.0686	1277.64319	-933.3299	-1020.52618	1403.97473	-1163.25989	-994.59454	1204.84521	-1237.06006	-975.57214	1093.56348	-1249.5387	-878.39795	979.15143	-1254.79041	-769.65192	927.81537	-1194.82007	-810.32135	883.08356	-1231.57825	-727.65967	846.12988	-1220.48157	-1022.4165	1392.88391	-841.63196	-1074.75171	1193.6781	-764.24207	-1074.42468	1071.40564	-756.66479	-1073.41687	950.66479	-741.46527	-1030.05615	805.56805	-770.25024	-1086.47021	812.49902	-734.276	-1058.93201	732.23364	-732.53125	-967.04639	949.42914	-1121.00256	-950.39362	964.71582	-901.55365	-1119.93591	981.68048	-1087.02319	-1103.40405	994.05896	-919.62085	-1046.91577	627.22565	-1160.87781	-1053.51099	463.46628	-1136.83765	-1247.87146	293.20923	-1119.448	-1365.41943	177.85788	-1083.24231	-1400.05933	196.17311	-1034.97314	-1299.29297	48.02302	-1085.63708	-969.44073	640.91187	-835.4856	-948.9812	518.57269	-863.32965	-955.86188	251.50017	-860.75549	-942.86298	65.50748	-907.68451	-979.53094	40.15575	-953.3219	-789.6825	40.45995	-910.15851	-1051.17554	1691.41394	-979.65192	NaN	NaN	NaN	NaN	NaN	NaN	NaN	NaN	NaN	NaN	NaN	NaN	NaN	NaN	NaN	NaN	NaN	NaN	NaN	NaN	NaN	NaN	NaN	NaN	NaN	NaN	NaN	NaN	NaN	NaN	NaN	NaN	NaN
5	0.04	-936.44635	1661.52173	-1029.86768	-950.61835	1638.33752	-902.54022	-1069.26208	1605.29883	-1050.07654	-1079.98889	1587.22205	-922.16364	-1075.42627	1447.70654	-1003.70905	-1123.42517	1121.10376	-1007.31262	-969.43799	1364.76904	-1001.86737	-937.66351	1187.77991	-1016.00385	-1156.37903	1278.16736	-931.65869	-1014.57025	1404.1084	-1162.72229	-989.6441	1204.64404	-1236.39722	-970.54681	1093.19763	-1248.60425	-874.75476	977.89349	-1254.33667	-766.4353	924.96796	-1194.85925	-807.78522	880.90271	-1231.71716	-725.54028	843.02856	-1221.14673	-1015.41986	1393.77161	-840.84296	-1066.44568	1194.38977	-763.01361	-1065.46167	1072.12268	-755.32849	-1063.29297	951.40588	-740.20581	-1018.64032	806.72046	-769.14697	-1074.91589	813.03107	-733.0722	-1046.82068	733.14557	-731.42725	-960.83173	950.23749	-1120.33423	-943.64594	965.20538	-900.98914	-1113.74695	981.867	-1085.86731	-1096.5155	994.72028	-918.47394	-1036.0979	627.29712	-1160.08643	-1038.79517	463.73218	-1136.01514	-1234.11426	297.02365	-1119.37524	-1354.625	184.61136	-1082.43054	-1388.28687	204.28101	-1033.80798	-1293.8988	51.55015	-1085.53369	-963.38861	641.43408	-835.03522	-943.99127	518.96002	-862.13629	-953.14056	251.72884	-859.9408	-942.51343	65.46029	-907.50183	-979.58533	40.25892	-953.05603	-789.685	40.18517	-910.24744	-1044.8822	1692.14087	-979.48114	NaN	NaN	NaN	NaN	NaN	NaN	NaN	NaN	NaN	NaN	NaN	NaN	NaN	NaN	NaN	NaN	NaN	NaN	NaN	NaN	NaN	NaN	NaN	NaN	NaN	NaN	NaN	NaN	NaN	NaN	NaN	NaN	NaN
6	0.05	-930.20593	1662.16052	-1029.89258	-944.28003	1639.28772	-902.32275	-1062.91504	1605.86658	-1049.76855	-1073.51941	1588.01526	-921.87323	-1069.0686	1448.31763	-1002.93793	-1116.9054	1121.71069	-1005.87396	-963.16718	1365.39771	-1001.28912	-931.42596	1188.37671	-1015.32941	-1149.69116	1278.70166	-930.0329	-1008.7312	1404.27527	-1162.24622	-984.84528	1204.20313	-1235.45935	-965.9892	1092.96472	-1247.58972	-871.37488	976.45282	-1253.88843	-763.54352	921.83539	-1194.95483	-805.65607	878.50952	-1231.90112	-723.88708	839.56006	-1221.94446	-1008.44598	1394.60266	-840.17426	-1058.12891	1195.04651	-761.74457	-1056.39026	1072.76599	-753.98035	-1053.22864	952.08002	-738.80914	-1007.24487	807.62518	-768.29205	-1063.45886	813.68817	-731.70801	-1034.41577	734.01691	-730.26855	-954.67841	951.0058	-1119.78821	-936.82135	966.02704	-900.15765	-1107.63867	982.0777	-1084.79492	-1089.67419	995.38269	-917.51251	-1025.30664	627.42822	-1159.27795	-1024.26965	464.12494	-1135.35254	-1220.41943	300.34152	-1118.58118	-1343.24072	190.90631	-1081.58496	-1375.70105	210.87682	-1032.64331	-1287.28235	55.23529	-1084.98499	-957.54077	641.91284	-834.34448	-939.31677	519.03656	-861.50439	-950.43817	251.80838	-859.28125	-942.07404	65.37917	-907.29865	-979.51166	40.25631	-952.84546	-789.76825	40.02011	-910.38684	-1038.5238	1692.82129	-979.39337	NaN	NaN	NaN	NaN	NaN	NaN	NaN	NaN	NaN	NaN	NaN	NaN	NaN	NaN	NaN	NaN	NaN	NaN	NaN	NaN	NaN	NaN	NaN	NaN	NaN	NaN	NaN	NaN	NaN	NaN	NaN	NaN	NaN
7	0.06	-924.14954	1662.82153	-1030.28198	-937.85266	1640.01917	-902.30939	-1056.66479	1606.41296	-1049.54346	-1067.23975	1588.79163	-921.55121	-1062.81152	1448.91809	-1002.1955	-1110.52576	1122.2738	-1004.52417	-956.88568	1365.96741	-1000.8764	-925.16644	1188.96521	-1014.6181	-1143.08167	1279.2832	-928.47052	-1003.00183	1404.4707	-1161.73401	-980.50525	1204.08472	-1234.95166	-961.55194	1092.62622	-1246.71228	-868.43195	974.89325	-1253.49902	-761.15295	918.45026	-1195.20593	-804.13409	875.94403	-1232.29529	-722.85663	835.93457	-1222.95007	-1001.45654	1395.42896	-839.57886	-1049.776	1195.65967	-760.61108	-1047.32117	1073.42712	-752.62439	-1042.96484	952.73279	-737.45319	-995.85156	808.84473	-767.25269	-1051.85962	814.32538	-730.27283	-1022.02509	734.96716	-729.00885	-948.66864	951.64423	-1119.23572	-929.8396	966.88654	-899.76782	-1101.5238	982.28882	-1083.73572	-1083.1803	996.06464	-916.44519	-1014.66632	627.68384	-1158.53894	-1009.83331	464.72012	-1134.6709	-1206.66943	303.8801	-1116.92053	-1331.58386	196.48523	-1080.57251	-1363.29346	216.73703	-1031.17737	-1278.00024	59.83815	-1086.22803	-951.98315	642.37238	-833.44623	-934.7475	519.073	-860.7348	-947.97412	251.87364	-858.74017	-941.75494	65.3346	-907.23358	-979.58887	40.37571	-952.63904	-789.73352	39.84458	-910.55975	-1032.15784	1693.57947	-979.44543	NaN	NaN	NaN	NaN	NaN	NaN	NaN	NaN	NaN	NaN	NaN	NaN	NaN	NaN	NaN	NaN	NaN	NaN	NaN	NaN	NaN	NaN	NaN	NaN	NaN	NaN	NaN	NaN	NaN	NaN	NaN	NaN	NaN
